<?xml version="1.0" standalone="no"?>
<!DOCTYPE svg PUBLIC "-//W3C//DTD SVG 20010904//EN"
 "http://www.w3.org/TR/2001/REC-SVG-20010904/DTD/svg10.dtd">
<svg version="1.0" xmlns="http://www.w3.org/2000/svg"
 width="1024.000000pt" height="1024.000000pt" viewBox="0 0 1024.000000 1024.000000"
 preserveAspectRatio="xMidYMid meet">

<g transform="translate(0.000000,1024.000000) scale(0.100000,-0.100000)"
fill="#000000" stroke="none">
<path d="M5275 7123 c-128 -32 -142 -218 -22 -277 80 -39 183 9 205 94 28 113
-70 211 -183 183z"/>
<path d="M5680 6925 c-76 -22 -129 -55 -188 -120 -73 -79 -96 -145 -97 -270 0
-88 3 -107 27 -158 15 -32 36 -69 46 -82 19 -24 20 -24 37 -5 23 25 67 26 88
2 22 -24 21 -44 -3 -74 l-20 -26 52 -22 c80 -34 156 -45 232 -32 141 23 242
96 302 218 131 264 -46 566 -339 580 -54 3 -101 -1 -137 -11z"/>
<path d="M4914 6431 c-39 -17 -74 -70 -74 -112 0 -78 49 -129 125 -129 81 0
131 57 122 138 -7 61 -48 103 -108 108 -24 2 -53 0 -65 -5z"/>
<path d="M5155 6176 c-66 -29 -105 -94 -105 -172 0 -95 79 -174 175 -174 156
0 237 201 123 307 -52 49 -134 65 -193 39z"/>
<path d="M4463 6092 c-142 -51 -232 -178 -233 -329 0 -106 28 -173 104 -249
65 -65 116 -89 211 -100 66 -8 163 17 218 55 42 29 105 91 77 76 -12 -6 -13
-5 -2 6 6 7 12 21 12 31 0 11 11 29 23 41 53 49 68 129 43 228 -27 104 -85
177 -181 227 -67 35 -195 41 -272 14z"/>
<path d="M6532 6090 c-67 -41 -90 -124 -55 -197 25 -54 66 -75 137 -70 54 3
62 7 99 46 38 41 39 44 35 102 -3 45 -10 65 -29 85 -53 57 -127 70 -187 34z"/>
<path d="M5580 6007 c-96 -64 -99 -203 -8 -269 45 -31 143 -33 184 -2 53 39
69 71 69 134 0 66 -18 99 -75 138 -46 31 -124 31 -170 -1z"/>
<path d="M6115 5925 c-203 -75 -223 -368 -33 -466 124 -64 282 -10 344 116 62
128 15 272 -111 337 -51 27 -147 33 -200 13z"/>
<path d="M5325 5725 c-22 -8 -40 -15 -41 -15 0 0 16 -18 36 -39 61 -64 76
-182 33 -250 l-15 -24 55 5 c71 6 119 40 142 102 52 137 -76 271 -210 221z"/>
<path d="M6703 5694 c-54 -20 -128 -85 -155 -138 -14 -27 -23 -66 -26 -117 -4
-66 -1 -84 20 -130 49 -108 143 -169 260 -169 37 0 69 4 72 9 3 4 0 22 -6 39
-10 25 -9 34 6 57 32 49 91 50 127 3 16 -21 17 -21 48 33 52 91 53 177 5 276
-60 125 -215 185 -351 137z"/>
<path d="M7303 5560 c-79 -40 -105 -147 -51 -215 61 -77 190 -72 244 10 25 39
24 116 -2 151 -52 70 -121 89 -191 54z"/>
<path d="M3490 5499 c-99 -20 -186 -103 -216 -206 -40 -139 26 -287 155 -347
66 -30 179 -29 242 2 64 31 117 86 147 150 50 109 13 270 -77 342 -70 54 -164
77 -251 59z"/>
<path d="M5684 5380 c-120 -38 -218 -121 -278 -234 -29 -55 -33 -76 -12 -76 7
0 25 -9 40 -21 55 -44 23 -129 -50 -129 l-36 0 7 -52 c44 -327 378 -507 673
-362 326 160 353 614 48 818 -46 31 -56 32 -56 9 -1 -35 -47 -73 -90 -73 -33
0 -70 44 -70 83 0 18 5 38 12 45 20 20 -118 14 -188 -8z"/>
<path d="M4374 5314 c-98 -48 -77 -198 32 -219 95 -17 165 86 119 175 -28 54
-92 73 -151 44z"/>
<path d="M4763 5306 c-36 -16 -54 -44 -55 -87 -3 -89 100 -133 163 -70 39 40
40 89 2 130 -34 37 -68 45 -110 27z"/>
<path d="M4087 5105 c-107 -38 -158 -171 -108 -281 33 -72 131 -124 204 -108
170 36 232 231 110 346 -57 55 -131 70 -206 43z"/>
<path d="M5013 5070 c-92 -56 -81 -194 20 -244 50 -24 98 -15 144 28 29 27 36
41 40 82 9 89 -47 154 -132 154 -22 0 -54 -9 -72 -20z"/>
<path d="M2994 4889 c-141 -41 -226 -206 -180 -346 64 -194 321 -248 457 -96
103 114 90 295 -28 392 -66 54 -166 74 -249 50z"/>
<path d="M3695 4777 c-80 -45 -96 -151 -34 -222 80 -91 232 -48 255 71 11 60
-21 124 -76 152 -56 28 -94 28 -145 -1z"/>
<path d="M4587 4749 c-229 -54 -379 -291 -326 -518 27 -118 124 -237 236 -289
52 -24 69 -27 174 -27 113 0 116 1 191 38 114 56 207 172 225 280 5 36 5 37
-25 37 -45 0 -92 43 -92 83 1 49 40 87 90 87 19 0 21 4 15 28 -19 78 -101 186
-168 221 -25 13 -28 12 -48 -12 -42 -54 -119 -22 -119 48 l0 35 -57 -1 c-32
-1 -75 -5 -96 -10z"/>
<path d="M5145 4684 c-55 -59 -15 -154 65 -154 73 0 118 67 86 129 -20 37 -44
51 -91 51 -26 0 -43 -7 -60 -26z"/>
<path d="M3628 4421 c-46 -15 -85 -49 -107 -94 -26 -53 -26 -109 -2 -163 61
-133 255 -134 320 -2 56 116 -15 249 -139 263 -25 2 -57 0 -72 -4z"/>
<path d="M5315 4398 c-50 -27 -71 -99 -45 -149 14 -25 62 -49 101 -49 46 0 99
56 99 105 0 74 -91 129 -155 93z"/>
<path d="M5859 4338 c-20 -5 -50 -23 -65 -39 -26 -27 -29 -37 -29 -99 0 -59 3
-72 25 -95 28 -31 78 -55 112 -55 42 0 103 38 126 79 65 115 -39 244 -169 209z"/>
<path d="M5403 4052 c-127 -46 -212 -147 -234 -280 -31 -193 103 -375 296
-401 158 -22 302 55 372 197 25 50 28 68 28 152 0 83 -3 102 -28 151 -32 67
-109 142 -174 171 -67 30 -192 34 -260 10z"/>
<path d="M4769 3607 c-92 -61 -90 -190 3 -247 43 -26 113 -26 156 0 34 21 72
87 72 125 0 38 -38 104 -72 125 -46 28 -115 27 -159 -3z"/>
<path d="M5051 3334 c-132 -66 -158 -238 -52 -344 141 -140 372 -48 374 149 1
168 -168 271 -322 195z"/>
</g>
</svg>
